<svg width="100" height="100" viewBox="0 0 100 100" fill="none" xmlns="http://www.w3.org/2000/svg">
  <rect width="100" height="100" rx="50" fill="#E5E7EB"/>
  <path d="M65 35H35C33.3431 35 32 36.3431 32 38V62C32 63.6569 33.3431 65 35 65H65C66.6569 65 68 63.6569 68 62V38C68 36.3431 66.6569 35 65 35Z" stroke="#9CA3AF" stroke-width="2"/>
  <path d="M32 55L43.5 45C44.3284 44.2686 45.6716 44.2686 46.5 45L57 55" stroke="#9CA3AF" stroke-width="2"/>
  <path d="M49 50L54.5 45C55.3284 44.2686 56.6716 44.2686 57.5 45L68 55" stroke="#9CA3AF" stroke-width="2"/>
  <circle cx="44" cy="42" r="3" fill="#9CA3AF"/>
</svg> 